<svg width="38" height="31" viewBox="0 0 38 31" fill="none" xmlns="http://www.w3.org/2000/svg">
<g clip-path="url(#clip0_25_108)">
<path d="M19.3511 0C18.875 0 18.4622 0.161587 18.1138 0.484761L8.9609 8.97374H1.76C1.28282 8.97374 0.871122 9.13533 0.522673 9.4585C0.174224 9.78167 0 10.1645 0 10.6061V20.3939C0 20.8355 0.174224 21.2183 0.522673 21.5415C0.871122 21.8647 1.28393 22.0263 1.76 22.0263H8.9609L18.1138 30.5152C18.4622 30.8384 18.8739 31 19.3511 31C19.8283 31 20.24 30.8384 20.5884 30.5152C20.9369 30.1921 21.1111 29.8102 21.1111 29.3677V1.63234C21.1111 1.1908 20.9369 0.807935 20.5895 0.484761C20.2422 0.161587 19.8294 0 19.3522 0H19.3511Z" fill="#B3B3B3"/>
<path d="M29.5977 19.1322C30.3387 18.0151 30.7092 16.8082 30.7092 15.5103C30.7092 14.2125 30.3387 13.0014 29.5977 11.8751C28.8567 10.7487 27.8771 9.95513 26.6559 9.49427C26.4817 9.40953 26.2632 9.36613 26.0025 9.36613C25.5496 9.36613 25.157 9.52423 24.8255 9.8394C24.4941 10.1566 24.3284 10.5431 24.3284 11.004C24.3284 11.3625 24.4329 11.6653 24.6429 11.9123C24.853 12.1592 25.1042 12.3731 25.4008 12.5519C25.6964 12.7307 25.993 12.927 26.2896 13.1409C26.5862 13.3548 26.8385 13.6565 27.0475 14.0492C27.2565 14.4419 27.361 14.9286 27.361 15.5083C27.361 16.088 27.2565 16.5747 27.0475 16.9673C26.8385 17.36 26.5862 17.6628 26.2896 17.8756C25.993 18.0885 25.6964 18.2859 25.4008 18.4646C25.1042 18.6434 24.8519 18.8573 24.6429 19.1043C24.4339 19.3512 24.3284 19.655 24.3284 20.0126C24.3284 20.4734 24.4951 20.8609 24.8255 21.1771C25.157 21.4913 25.5486 21.6514 26.0025 21.6514C26.2632 21.6514 26.4817 21.6091 26.6559 21.5233C27.8761 21.0449 28.8567 20.2471 29.5977 19.1291V19.1322Z" fill="#B3B3B3"/>
<path d="M35.7563 22.8582C37.252 20.6112 37.9999 18.1571 37.9999 15.4989C37.9999 12.8419 37.252 10.3898 35.7563 8.1397C34.2605 5.89271 32.2811 4.25451 29.819 3.23038C29.591 3.14416 29.362 3.1 29.1329 3.1C28.6759 3.1 28.2796 3.26508 27.9451 3.59524C27.6105 3.9254 27.4443 4.3155 27.4443 4.76763C27.4443 5.44478 27.7874 5.95685 28.4735 6.30488C29.4579 6.80854 30.1269 7.19022 30.4785 7.45099C31.7803 8.3889 32.7967 9.56444 33.5265 10.9797C34.2562 12.395 34.6216 13.9007 34.6216 15.5C34.6216 17.0972 34.2562 18.6039 33.5265 20.0203C32.7967 21.4356 31.7803 22.6111 30.4785 23.549C30.1269 23.8098 29.4579 24.1915 28.4735 24.6951C27.7874 25.0431 27.4443 25.5542 27.4443 26.2324C27.4443 26.6834 27.6116 27.0746 27.9451 27.4048C28.2785 27.7349 28.6833 27.9 29.1585 27.9C29.3694 27.9 29.59 27.8558 29.818 27.7696C32.28 26.7444 34.2605 25.1083 35.7552 22.8592L35.7563 22.8582Z" fill="#B3B3B3"/>
</g>
<defs>
<clipPath id="clip0_25_108">
<rect width="38" height="31" fill="white"/>
</clipPath>
</defs>
</svg>
